<?xml version="1.0" encoding="UTF-8"?>
<svg id="Capa_2" data-name="Capa 2" xmlns="http://www.w3.org/2000/svg" viewBox="0 0 247.06 271.27">
  <defs>
    <style>
      .cls-1 {
        fill: #ffbea7;
      }
    </style>
  </defs>
  <g id="Capa_1-2" data-name="Capa 1">
    <g id="f8DXLI">
      <g>
        <path class="cls-1" d="m.01,143.07c0-2.23-.03-6.17,0-10.12.05-5.33.07-10.66.27-15.99.33-8.49.71-16.98,1.24-25.47.32-5.11.71-10.23,1.53-15.28,1.11-6.84,4.85-12.22,10.31-16.44,7.96-6.15,16.26-11.79,24.88-16.96,10.74-6.44,21.5-12.83,32.35-19.08,6.02-3.46,12.29-6.47,18.34-9.88,7.98-4.5,16.27-8.34,24.72-11.82,6.7-2.76,13.45-2.71,20.15.08,9.68,4.04,18.99,8.86,28.25,13.78,6.38,3.4,12.76,6.81,19.03,10.41,7.08,4.06,14.08,8.28,21.05,12.53,10.45,6.37,20.8,12.9,30.68,20.15,4,2.94,7.35,6.38,9.42,10.98,1.5,3.35,2.29,6.86,2.55,10.48.69,9.65,1.4,19.31,1.9,28.97.3,5.85.26,11.71.3,17.57.05,5.73.14,11.47-.02,17.2-.29,11.14-.65,22.28-1.17,33.41-.26,5.47-.81,10.94-1.47,16.38-.83,6.76-4.16,12.22-9.3,16.63-5.88,5.06-12.43,9.16-18.91,13.37-13.06,8.48-26.49,16.37-40.1,23.93-7.14,3.96-14.32,7.87-21.6,11.56-6.44,3.27-13.02,6.28-19.59,9.29-7.62,3.48-15.24,3.18-22.89-.16-14.77-6.44-28.88-14.17-42.89-22.09-17.73-10.03-35.23-20.45-51.9-32.2-1.69-1.19-3.37-2.42-4.96-3.75-5.64-4.71-8.73-10.77-9.55-18.06-1.16-10.27-1.76-20.57-1.98-30.91-.12-5.61-.4-11.22-.66-18.55Zm111.73-37.97h-.01c0,1.59,0,3.17,0,4.76,0,8.91.02,17.82-.01,26.73,0,1.21.35,1.64,1.61,1.59,2.31-.1,4.64-.02,6.95-.03,2.08,0,2.29-.21,2.31-2.31.03-4.43.02-8.87.06-13.3.04-4.1-.14-8.23.24-12.3.49-5.27,4.21-9.1,9.39-9.77,6.37-.81,10.92,1.53,11.99,8.05.5,3.07.59,6.23.64,9.35.1,6.02.03,12.04.05,18.06,0,2.04.17,2.19,2.25,2.2,2.52.01,5.04,0,7.57.04.77.01,1.06-.2,1.05-1.04-.03-3.62.05-7.24.02-10.86-.06-6.18.08-12.37-.37-18.52-.35-4.81-2.37-9.22-6.19-12.34-7.01-5.73-14.88-6.76-23.15-3.13-2.45,1.07-3.52,1-3.46-2.3.08-5.04-.03-10.09-.1-15.13-.03-2.26-.53-2.73-2.74-2.73-2.2,0-4.4.06-6.59-.03-1.18-.05-1.51.33-1.51,1.51.04,10.5.02,20.99.02,31.49Zm-54.95,6.03c-1.38-1.46-2.61-2.74-3.81-4.05-.47-.51-.84-.67-1.41-.12-1.9,1.83-3.82,3.66-5.77,5.43-.66.6-.59,1,0,1.58,3.35,3.26,6.7,6.53,9.99,9.85.79.8,1.31.8,2.08,0,3.46-3.61,6.99-7.16,10.47-10.75,1.47-1.52,2.51-3.31,3.04-5.35,1.37-5.22.37-9.79-3.78-13.48-4.51-4.01-9.93-5.03-15.61-4.12-9.29,1.48-16.26,6.2-19.74,15.34-1.74,4.57-2.65,9.26-1.61,14.08,1.18,5.53,3.81,10.31,8.14,14.1,7.32,6.41,17.28,8.72,26.95,3.81,5.55-2.82,9.38-7.29,11.91-12.92.24-.52.41-1.07.7-1.84-2.93,0-5.61.07-8.29-.03-1.48-.05-2.45.4-3.35,1.66-3.65,5.1-9.75,7.1-15.51,5.4-6.53-1.92-11.98-9.43-10.25-18.01,1.44-7.17,6.67-11.64,13.97-12.06,2.24-.13,4.49.18,6.16,2.02.89.99,1.32,2.73.64,3.61-1.53,1.98-3.21,3.84-4.91,5.85Zm146.86-19.49c-.43-.11-.58-.18-.74-.18-3.38-.01-6.75-.05-10.13.02-.4,0-.95.45-1.14.84-.64,1.31-1.18,2.67-1.71,4.03-2.97,7.64-5.91,15.29-8.91,22.92-.26.66-.87,1.17-1.32,1.75-.48-.59-1.14-1.1-1.41-1.78-1.87-4.76-3.64-9.56-5.46-14.33-1.55-4.05-3.15-8.09-4.7-12.14-.39-1.01-1.03-1.38-2.14-1.36-2.93.07-5.86.01-8.78.02-.38,0-.77.04-1.35.07,1.04,2.54,2.02,4.89,2.98,7.24,4.78,11.73,9.53,23.46,14.36,35.17.57,1.39.6,2.55-.01,3.94-2.47,5.56-4.83,11.18-7.22,16.78-.12.28-.16.59-.23.89.21.08.33.17.44.16.57-.04,1.13-.1,1.69-.16,5.12-.53,9.24-2.76,11.43-7.54,3.28-7.16,6.34-14.42,9.44-21.66,3.95-9.22,7.83-18.46,11.76-27.68.98-2.3,2.06-4.56,3.16-7Zm-126.57,9.72c.18.07.29.16.4.16,1.5.02,3.01.02,4.51.04,2.34.02,2.89.55,2.89,2.87,0,4.35-.01,8.71-.02,13.06,0,3.34.56,6.54,2.06,9.55,3.67,7.36,9.81,10.74,17.83,11.14.9.04,1.3-.14,1.26-1.19-.09-2.36-.09-4.72,0-7.08.04-1.14-.4-1.64-1.46-1.8-4.59-.72-7.15-3.53-8.09-7.95-1.2-5.59-.6-11.26-.69-16.9-.02-1.18.7-1.69,1.9-1.69,1.67,0,3.34-.02,5,0,.59,0,.9-.15.89-.82-.03-2.81-.03-5.61-.01-8.42,0-.72-.36-.9-.99-.89-1.87.02-3.74.01-5.61,0-.39,0-.78-.05-1.21-.08,0-1.97,0-3.79,0-5.62,0-3.86.01-7.73-.03-11.59-.02-1.66-.41-2-2.04-2.01-2.48,0-4.96.05-7.44-.03-1.09-.03-1.37.32-1.35,1.39.06,5.53,0,11.06.06,16.6.01,1.13-.31,1.48-1.44,1.41-1.78-.11-3.58-.09-5.37-.03-.35.01-.99.42-.99.66-.07,3.08-.04,6.16-.04,9.23Zm106.46,84.35h0c0,3.17-.03,6.35,0,9.52.02,2.08.93,3.19,2.71,3.23,2.76.05,5.54.15,8.29-.03,4.38-.29,7.7-2.34,9.59-6.43,1.28-2.78,1.54-5.73,1.19-8.7-.53-4.45-3.5-9.57-9.36-10.26-3.01-.35-6.08-.22-9.13-.26-2.39-.03-2.91.45-3.24,2.82-.06.44-.06.89-.06,1.34,0,2.93,0,5.86,0,8.79Zm-89.28,3.92c1.8-.51,2.81.05,3.59,1.49,1.12,2.07,2.41,4.04,3.69,6.03.96,1.5,2.24,1.88,3.51,1.16,1.43-.81,1.95-2.39,1.06-3.86-1.01-1.66-2.2-3.21-3.3-4.82-.21-.3-.36-.63-.59-1.04,2.28-.36,3.52-1.74,4.47-3.48,2.8-5.12.22-10.65-4.53-11.95-3.56-.97-7.25-.86-10.89-.41-1.71.21-2.41,1.07-2.42,2.81-.04,6.79-.03,13.58-.02,20.37,0,1.28.81,2.03,1.89,2.43,1.03.39,2.12.19,2.76-.7.46-.64.72-1.54.76-2.35.11-1.89.03-3.8.03-5.69Zm121.73-69.14c.16.15.32.3.48.45-.99,1.45-1.82,3.07-3.02,4.33-2.77,2.92-5.76,5.63-8.56,8.52-1.03,1.07-1.81,2.39-2.68,3.61-.54.76-.23,1.27.59,1.39,1.24.18,2.49.33,3.74.33,6.68-.02,10.97-3.41,12.75-9.87,1.02-3.7,1.23-7.42.73-11.22-.31-2.38-1.09-3-3.39-2.38-.31.08-.62.18-.92.31-4.13,1.73-8.13,3.72-11.75,6.39-3.78,2.78-5.75,9.11-4.1,13.21.13-.11.26-.2.36-.31,1.64-1.68,3.13-3.54,4.95-5,3.55-2.86,7.17-5.62,10.04-9.22.19-.23.52-.35.78-.53Zm-144.18,63c0-1.73.04-3.31-.01-4.88-.03-.86.31-1.13,1.14-1.12,2.28.03,4.56.02,6.83,0,1.57-.02,2.74-1.12,2.73-2.51,0-1.23-1.19-2.22-2.71-2.22-3.5,0-7-.01-10.5,0-2.27,0-3.2.9-3.21,3.17-.02,6.59-.02,13.18,0,19.77,0,1.91.87,2.75,2.77,2.76,3.7.02,7.4.02,11.11,0,1.64,0,2.74-.9,2.78-2.26.05-1.38-1.1-2.41-2.76-2.43-2.4-.02-4.8-.03-7.2,0-.73,0-1.03-.22-.99-.98.05-1.14.06-2.28,0-3.42-.05-.95.36-1.18,1.23-1.16,1.87.04,3.74.03,5.61-.02,1.55-.04,2.69-1.15,2.65-2.47-.05-1.35-1.07-2.23-2.65-2.25-2.19-.02-4.39,0-6.82,0Zm94.73,0c0-1.67.05-3.21-.02-4.74-.04-.95.26-1.3,1.25-1.27,2.36.05,4.72.05,7.07-.01,1.62-.04,2.45-.94,2.42-2.42-.03-1.42-.89-2.28-2.44-2.29-3.66-.02-7.32-.03-10.98,0-2.08.02-2.76.75-2.77,2.84-.02,4.68-.02,9.35-.02,14.03,0,2.2-.02,4.39.02,6.59.02,1.34.74,2.21,1.93,2.22,4.15.04,8.29.05,12.44,0,1.32-.01,2.05-.9,2.08-2.22.04-1.51-.77-2.39-2.4-2.43-2.52-.06-5.04-.04-7.56-.01-.79.01-1.09-.24-1.05-1.05.06-1.09.06-2.2,0-3.29-.04-.88.24-1.25,1.17-1.22,1.83.05,3.66.02,5.49,0,1.69-.02,2.88-.98,2.88-2.32,0-1.61-.91-2.41-2.81-2.42-2.18,0-4.37,0-6.72,0Zm-115.17,5.96c-.11,0-.22-.01-.33-.02-.32-1.4-.6-2.81-.97-4.19-1-3.67-1.97-7.36-3.1-10.99-.48-1.53-2.01-2.04-3.47-1.5-1.21.45-1.9,1.93-1.53,3.31.22.82.44,1.64.69,2.46,1.8,5.9,3.57,11.8,5.43,17.67.25.78.81,1.67,1.49,2.07,1.89,1.13,3.97.29,4.66-1.85,2.15-6.63,4.23-13.28,6.31-19.94.54-1.72-.22-3.36-1.66-3.77-1.74-.5-3.02.29-3.56,2.29-.99,3.64-1.93,7.29-2.91,10.93-.32,1.19-.7,2.36-1.06,3.53Zm80.72-5.96c0-1.7.06-3.24-.02-4.77-.05-1,.33-1.27,1.26-1.25,2.28.05,4.55.03,6.83,0,1.65-.02,2.65-.95,2.66-2.38,0-1.47-.96-2.34-2.64-2.34-3.5-.01-6.99-.01-10.49,0-2.3,0-3.05.76-3.06,3.1-.01,6.55-.01,13.1,0,19.64,0,1.8,1.27,3.21,2.83,3.19,1.44-.01,2.61-1.35,2.63-3.09.02-2.03.05-4.07-.02-6.1-.03-.96.26-1.31,1.24-1.28,1.54.06,3.09.03,4.63,0,1.69-.03,2.73-1.01,2.71-2.48-.03-1.43-.99-2.24-2.75-2.25-1.87-.01-3.73,0-5.81,0Zm16.03,2.25c0,1.06,0,2.12,0,3.17,0,2.2-.04,4.4.03,6.59.06,1.67,1.34,2.97,2.8,3.02,1.54.05,2.57-.93,2.85-2.75.04-.28.04-.57.04-.85,0-6.19,0-12.37-.02-18.56,0-.64-.1-1.31-.3-1.91-.38-1.19-1.45-1.97-2.57-1.89-1.2.09-2.09.72-2.48,1.87-.23.68-.34,1.43-.35,2.15-.04,3.05-.02,6.1-.02,9.16Zm-28.71-.14c0-1.51,0-3.01,0-4.52-.01-1.87.04-3.75-.08-5.61-.12-1.8-1.37-2.98-2.85-2.9-1.45.08-2.53,1.41-2.54,3.16,0,6.59,0,13.18,0,19.77,0,1.75,1.02,2.96,2.5,3.05,1.51.09,2.74-1.09,2.93-2.82.04-.4.03-.81.03-1.22,0-2.97,0-5.94,0-8.91Z"/>
        <path class="cls-1" d="m189.29,193.55v-15.84c2.42-.2,4.78-.29,7.07.61.44.17.82.52,1.17.86,3.23,3.14,3.1,10.15-.23,13.08-.98.86-2.07,1.37-3.43,1.31-1.49-.06-2.98-.01-4.58-.01Z"/>
        <path class="cls-1" d="m94.27,181.1c0-.85.03-1.71,0-2.56-.03-.72.22-1.05.98-1.01,1.3.07,2.61-.02,3.89.14,1.94.24,3.16,1.8,3.08,3.74-.07,1.78-1.4,3.17-3.29,3.31-1.29.09-2.6.07-3.9,0-.27-.02-.69-.5-.72-.8-.1-.93-.03-1.87-.03-2.8Z"/>
      </g>
    </g>
  </g>
</svg>