<?xml version="1.0" encoding="UTF-8"?>
<svg id="Capa_2" data-name="Capa 2" xmlns="http://www.w3.org/2000/svg" viewBox="0 0 102.03 102.08">
  <defs>
    <style>
      .cls-1 {
        fill: #9f988e;
      }
    </style>
  </defs>
  <g id="Capa_1-2" data-name="Capa 1">
    <g id="_0xpgE2" data-name="0xpgE2">
      <path class="cls-1" d="m83.94,46.53h-16.78c0-2.83-.16-5.59.06-8.33.15-1.81,1.79-2.93,3.65-2.93,4.31-.02,8.63,0,13.08,0v-17.15c-.6-.05-1.27-.14-1.94-.14-3.39-.01-6.79.1-10.18-.03-7.1-.27-12.52,2.72-16.54,8.38-2.85,4-4.42,8.46-4.28,13.46.06,2.19.01,4.38.01,6.7h-12.35c0,.62,0,1.12,0,1.62-.02,4.8,0,9.6-.08,14.39-.01.92.3,1.09,1.12,1.08,3.32-.02,6.65.04,9.97.03.83,0,1.25.17,1.22,1.14-.05,1.37.11,2.74.12,4.11.01,9.01,0,18.03,0,27.04,0,1.68-.06,3.36.02,5.03.04.84-.29,1.12-1.04,1.12-2.33,0-4.66,0-6.99,0-8.4,0-16.8-.05-25.19,0-6.03.04-10.81-2.4-14.4-7.15C1.22,92.02.04,88.69.03,85.05,0,62.33-.04,39.6.06,16.87c.02-5.71,2.8-10.19,7.36-13.57C10.63.92,14.24.03,18.22.04,40.29.08,62.37.15,84.44,0c7.03-.05,13.93,4.72,16.5,11.32.7,1.8,1.02,3.87,1.03,5.82.07,22.11.03,44.22.06,66.33,0,2.81-.22,5.54-1.46,8.1-2.38,4.94-6.12,8.42-11.44,9.89-1.81.5-3.79.55-5.69.58-5.17.07-10.35,0-15.53.03-.69,0-.89-.23-.89-.88-.02-5.17-.07-10.35-.08-15.52-.02-7.06,0-14.12-.04-21.18,0-1.02.6-.9,1.21-.9,4.97.01,9.94,0,14.91.07.96.01,1.08-.26,1.06-1.16-.1-4.69-.11-9.39-.14-14.08,0-.58,0-1.16,0-1.88Z"/>
    </g>
  </g>
</svg>