<?xml version="1.0" encoding="UTF-8"?>
<svg id="Capa_2" data-name="Capa 2" xmlns="http://www.w3.org/2000/svg" viewBox="0 0 102.08 102.08">
  <defs>
    <style>
      .cls-1 {
        fill: #9f988e;
      }
    </style>
  </defs>
  <g id="Capa_1-2" data-name="Capa 1">
    <g id="s53jQv">
      <g>
        <path class="cls-1" d="m0,78.01V24.56c.12.6.25,1.2.37,1.8.21-7.05,3.07-12.93,7.94-17.86C13.19,3.55,19.12.74,26.35.34,25.8.18,25.5.09,25.2,0c17.44,0,34.88,0,52.33,0-.53.09-1.06.18-1.59.27,7.01.43,12.92,3.27,17.83,8.2,4.92,4.93,7.65,10.9,8.01,18.11.16-.45.23-.67.31-.89v49.76c-.11.37-.29.73-.32,1.1-.35,3.97-1.49,7.69-3.47,11.15-2.6,4.57-6.2,8.16-10.79,10.7-3.39,1.88-6.98,3.21-10.93,3.24-.22,0-.43.04-.82.07.55.17.92.28,1.29.39H24.4c.56-.1,1.11-.19,1.67-.29-7.01-.41-12.89-3.28-17.75-8.21-4.86-4.93-7.83-10.78-7.86-17.88-.15.77-.31,1.53-.46,2.3Zm51.08,15.05c7.52,0,15.03.03,22.55-.02,1.72-.01,3.5-.13,5.16-.54,7.96-1.98,14.38-9.48,14.31-18.39-.05-6.93,0-13.86,0-20.78,0-8.43-.02-16.85,0-25.28.01-3.46-.8-6.7-2.62-9.61-3.83-6.12-9.33-9.41-16.64-9.41-15.3-.01-30.6-.01-45.9,0-3.44,0-6.69.78-9.61,2.64-6.17,3.94-9.36,9.54-9.35,16.93.03,15.14,0,30.28.02,45.42,0,1.04.03,2.1.22,3.12,1.33,7.03,5.38,11.89,11.92,14.71,2.44,1.05,5.03,1.22,7.62,1.22,7.44.02,14.87,0,22.31,0Z"/>
        <path class="cls-1" d="m24.88,51.61c-.37-14.23,11.17-26.41,25.48-26.72,14.33-.31,26.51,10.78,26.82,25.68.3,14.27-10.78,25.98-24.97,26.6-14.73.65-26.88-10.81-27.32-25.56Zm43.49-.52c.09-9.68-7.72-17.27-17.08-17.38-9.91-.11-17.64,7.79-17.6,17.45.04,9.52,7.74,17.23,17.26,17.22,9.74,0,17.45-7.66,17.42-17.29Z"/>
        <path class="cls-1" d="m84.94,23.72c-.02,3.56-2.89,6.46-6.41,6.46-3.64,0-6.45-2.84-6.5-6.42-.05-4.17,3.45-6.66,6.53-6.55,3.66.13,6.29,2.91,6.38,6.51Z"/>
      </g>
    </g>
  </g>
</svg>