<?xml version="1.0" encoding="UTF-8"?>
<svg id="Capa_2" data-name="Capa 2" xmlns="http://www.w3.org/2000/svg" viewBox="0 0 134.75 134.75">
  <defs>
    <style>
      .cls-1 {
        fill: #f6c2ac;
      }

      .cls-2 {
        fill: #fff;
      }
    </style>
  </defs>
  <g id="Capa_1-2" data-name="Capa 1">
    <circle class="cls-2" cx="67.38" cy="67.38" r="67.38"/>
    <g id="KEKQuD">
      <path class="cls-1" d="m67.35,119.23c-.65-.87-1.18-1.56-1.69-2.26-10.42-14.32-20.47-28.88-28.35-44.81-2.75-5.56-5.24-11.26-6.07-17.46-1.01-7.63.81-14.81,4.83-21.26,8.31-13.36,20.49-19.32,36.12-17.64,15.74,1.69,28.64,14.68,31.2,30.28,1.13,6.91-.45,13.17-2.92,19.38-3.94,9.91-9.31,19.08-15.13,27.96-5.42,8.28-11.22,16.31-16.86,24.45-.3.43-.67.81-1.14,1.36Zm.07-49.71c9.93.95,18.38-8.65,18-18.29-.37-9.37-8.46-17.61-18.01-17.46-10.89.17-18.23,9.24-18.02,18.64.19,8.41,7.79,17.92,18.03,17.11Z"/>
    </g>
  </g>
</svg>