<?xml version="1.0" encoding="UTF-8"?>
<svg id="Capa_2" data-name="Capa 2" xmlns="http://www.w3.org/2000/svg" viewBox="0 0 134.75 134.75">
  <defs>
    <style>
      .cls-1 {
        fill: #f6c2ac;
      }

      .cls-2 {
        fill: #fff;
      }
    </style>
  </defs>
  <g id="Capa_1-2" data-name="Capa 1">
    <circle class="cls-2" cx="67.38" cy="67.38" r="67.38"/>
    <g id="yjtZ8p">
      <g>
        <path class="cls-1" d="m67.47,31.61c10.55,0,21.09.02,31.64-.01,3.45-.01,6.64.8,9.42,2.82,4.17,3.02,6.45,7.15,6.48,12.34.06,9.2.02,18.41.02,27.61,0,4.56.01,9.11-.03,13.67-.07,7.53-6.02,14.14-13.5,14.92-1.94.2-3.92.1-5.88.11-19.78.03-39.56,0-59.34.1-5.94.03-10.6-2.21-13.97-7.04-1.83-2.63-2.53-5.65-2.53-8.84,0-13.29.1-26.58-.04-39.87-.09-8.58,6.98-15.85,15.55-15.81,10.73.04,21.47.01,32.2.01Zm-.04,4.45h0c-7.12-.01-14.23-.01-21.35-.01-4.03,0-8.05-.02-12.08.03-1.64.02-3.21.49-4.59,1.41-3.36,2.25-5.28,5.33-5.29,9.45-.01,13.54.08,27.09-.05,40.63-.05,5.49,4.52,11.16,11.04,11.13,21.47-.1,42.94-.03,64.41-.06,1.23,0,2.49-.19,3.69-.51,4.27-1.12,7.43-5.56,7.43-10.35,0-13.58-.08-27.15.04-40.73.05-6.06-4.91-11.13-11.06-11.04-10.73.15-21.47.04-32.21.04Z"/>
        <path class="cls-1" d="m101.08,92.32c-.42-.29-1.11-.65-1.65-1.17-3.83-3.62-7.63-7.28-11.44-10.92-2.91-2.78-5.82-5.56-8.71-8.35-.65-.63-1.12-.41-1.66.13-2.59,2.57-5.19,5.13-7.79,7.69-2.09,2.05-2.77,2.03-4.86-.03-2.6-2.56-5.22-5.1-7.83-7.66-.45-.44-.82-.69-1.4-.13-5.81,5.57-11.65,11.11-17.48,16.66-1.13,1.07-2.21,2.21-3.42,3.19-1.4,1.12-3.11.51-3.66-1.14-.26-.79.09-1.34.58-1.84,1.05-1.07,2.13-2.11,3.21-3.14,5.8-5.53,11.6-11.07,17.42-16.58.61-.58.7-.92.04-1.56-6.72-6.51-13.42-13.05-20.12-19.59-.29-.28-.58-.57-.84-.88-.88-1.02-.89-2.05-.03-2.91,1.03-1.02,2.23-1.11,3.23-.14,2.57,2.5,5.08,5.06,7.66,7.56,5.95,5.78,11.93,11.53,17.88,17.32,2.17,2.11,4.29,4.26,6.41,6.42.49.5.87.59,1.4.07,6.35-6.22,12.72-12.42,19.08-18.64,4.31-4.21,8.6-8.43,12.9-12.65,1.35-1.33,3.03-.79,3.81.82.39.81.11,1.54-.56,2.18-3.9,3.78-7.77,7.58-11.65,11.38-3.07,3.01-6.13,6.05-9.22,9.04-.59.57-.6.87.02,1.46,5.14,4.83,10.23,9.7,15.34,14.56,1.54,1.46,3.09,2.91,4.63,4.36.29.28.58.57.84.88.56.65.92,1.38.46,2.22-.49.88-1.27,1.34-2.61,1.4Z"/>
      </g>
    </g>
  </g>
</svg>