<?xml version="1.0" encoding="UTF-8"?>
<svg id="Capa_2" data-name="Capa 2" xmlns="http://www.w3.org/2000/svg" viewBox="0 0 134.75 134.75">
  <defs>
    <style>
      .cls-1 {
        fill: #f6c2ac;
      }

      .cls-2 {
        fill: #fff;
      }
    </style>
  </defs>
  <g id="Capa_1-2" data-name="Capa 1">
    <circle class="cls-2" cx="67.38" cy="67.38" r="67.38"/>
    <g id="rbdJQh">
      <path class="cls-1" d="m93.21,112.14c-4.09-.13-8.13-1.42-12.14-2.84-6.44-2.28-12.88-4.59-18.52-8.55-3.67-2.58-7.26-5.32-10.67-8.23-7.06-6.03-13.17-12.96-18.46-20.59-3.67-5.28-6.15-11.12-8.21-17.16-1.18-3.45-2.39-6.92-3.2-10.47-1.23-5.41-.04-10.57,2.41-15.46.54-1.08,1.2-2.09,1.77-3.16,2.39-4.46,6.09-7.06,11.07-7.84,1.39-.22,2.8-.36,4.2-.51,1.07-.12,1.86.35,2.39,1.26.84,1.44,1.65,2.89,2.49,4.33,2.63,4.53,5.22,9.09,7.92,13.58,2.08,3.47,2.06,4.73-.88,7.5-1.81,1.71-3.89,3.13-5.79,4.75-1.04.89-1.98,1.9-2.94,2.88-1.24,1.25-1.42,2.69-.6,4.22.96,1.8,1.93,3.59,2.95,5.35,6.13,10.61,14.39,19.11,25.08,25.17,1.74.99,3.43,2.05,5.2,2.96,2.44,1.25,3.46,1.08,5.3-.89,1.44-1.55,2.72-3.26,4.14-4.83,1.42-1.58,2.87-3.12,4.39-4.6,1.33-1.29,2.9-1.29,4.51-.52.26.13.52.27.77.41,5.72,3.31,11.45,6.62,17.17,9.93,2.64,1.52,3.1,2.29,2.57,5.25-.41,2.24-.89,4.5-1.66,6.64-.49,1.36-1.35,2.75-2.43,3.69-4.99,4.41-10.81,7.1-17.51,7.72-.37.03-.75,0-1.33,0Z"/>
    </g>
  </g>
</svg>