<?xml version="1.0" encoding="UTF-8"?>
<svg id="Capa_2" data-name="Capa 2" xmlns="http://www.w3.org/2000/svg" viewBox="0 0 123.26 101.16">
  <defs>
    <style>
      .cls-1 {
        fill: #9f988e;
      }
    </style>
  </defs>
  <g id="Capa_1-2" data-name="Capa 1">
    <g id="w24WbO">
      <path class="cls-1" d="m60.61,31.54c-.19-2.2-.58-4.18-.51-6.15C60.67,8.81,74.43-1.01,87.43.08c6.15.51,11.49,2.9,15.93,7.21.64.62,1.2.81,2.09.6,5.04-1.2,9.93-2.76,14.28-5.69.09-.06.23-.06.52-.12-2.05,5.77-5.54,10.22-10.75,13.32.03.11.06.22.09.34.65,0,1.34.14,1.94-.02,3.64-.99,7.26-2.05,10.89-3.09.2-.06.39-.14.59-.18.06-.01.13.07.25.14-2.98,4.26-6.45,8.04-10.62,11.13-1.17.86-1.59,1.71-1.59,3.17.06,21.88-7.82,40.48-23.59,55.57-9.74,9.32-21.48,14.96-34.78,17.39-12.06,2.2-23.97,1.64-35.69-1.86-5.79-1.73-11.28-4.25-16.44-7.42-.16-.1-.3-.24-.55-.44,13.84,1.24,26.09-2.34,37-10.75-11.52-1.04-19.28-7-23.81-17.75,3.89.5,7.55.43,11.31-.45-12.56-3.81-19.21-12.25-20.46-25.19,2.03.73,3.86,1.51,5.76,2.03,1.87.51,3.81.77,5.71,1.14l.19-.33c-.58-.55-1.13-1.14-1.75-1.64C4.92,29.87,2,17.5,6.83,6.94c.3-.67.62-1.33.97-2.07,13.93,16.36,31.47,25.23,52.81,26.67Z"/>
    </g>
  </g>
</svg>