<?xml version="1.0" encoding="UTF-8"?>
<svg id="Capa_1" data-name="Capa 1" xmlns="http://www.w3.org/2000/svg" viewBox="0 0 30 30">
  <defs>
    <style>
      .cls-1 {
        fill: #ff93b9;
      }

      .cls-2 {
        fill: none;
        stroke: #000;
        stroke-linecap: round;
        stroke-linejoin: round;
        stroke-width: .57px;
      }
    </style>
  </defs>
  <path class="cls-1" d="m18.28,2.26c-.45,0-.45.7,0,.7s.45-.7,0-.7Z"/>
  <path class="cls-1" d="m22.83,4.01c-.45,0-.45.7,0,.7s.45-.7,0-.7Z"/>
  <path class="cls-1" d="m21.66,12.87c-.45,0-.45.7,0,.7s.45-.7,0-.7Z"/>
  <path class="cls-1" d="m28.66,14.5c-.45,0-.45.7,0,.7s.45-.7,0-.7Z"/>
  <path class="cls-1" d="m21.66,19.53c-.45,0-.45.7,0,.7s.45-.7,0-.7Z"/>
  <path class="cls-1" d="m23.94,8.03c-.45,0-.45.7,0,.7s.45-.7,0-.7Z"/>
  <path class="cls-1" d="m27.04,10.62c-.45,0-.45.7,0,.7s.45-.7,0-.7Z"/>
  <path class="cls-1" d="m25,15.72c-.45,0-.45.7,0,.7s.45-.7,0-.7Z"/>
  <path class="cls-1" d="m29.66,20.63c.16-.06.23-.31.16-.48-.07-.18-.28-.21-.36-.24-.15-.04-.31-.03-.4.11-.1.16-.07.39.07.52.16.15.35.15.53.09Z"/>
  <path class="cls-1" d="m24.91,13.22c.16-.06.23-.31.16-.48-.07-.18-.28-.21-.36-.24-.15-.04-.31-.03-.4.11-.1.16-.07.39.07.52.16.15.35.15.53.09Z"/>
  <path class="cls-1" d="m22,.92c-.45,0-.45.7,0,.7s.45-.7,0-.7Z"/>
  <path class="cls-1" d="m16.31,5.45c-.14-.13-.36-.14-.49,0-.12.12-.14.34-.02.47.09.12.16.25.32.24.17,0,.37-.15.35-.35-.01-.14-.05-.26-.16-.36Z"/>
  <polygon class="cls-1" points=".16 15.02 13.34 3.28 21.19 17.62 10.57 24.26 .16 15.02"/>
  <g>
    <path d="m4.78,6.9h-2.61v-.94h6.34v.94h-2.62v7.63h-1.12v-7.63Z"/>
    <path d="m9.47,6.07c.56-.11,1.36-.18,2.12-.18,1.18,0,1.94.22,2.48.7.43.38.67.97.67,1.63,0,1.13-.71,1.88-1.61,2.19v.04c.66.23,1.05.84,1.26,1.73.28,1.19.48,2.02.66,2.35h-1.14c-.14-.24-.33-.98-.57-2.05-.25-1.18-.71-1.63-1.72-1.66h-1.04v3.71h-1.11V6.07Zm1.11,3.9h1.13c1.18,0,1.93-.65,1.93-1.63,0-1.11-.8-1.59-1.97-1.6-.53,0-.91.05-1.09.1v3.13Z"/>
    <path d="m17.75,11.83l-.89,2.69h-1.14l2.91-8.57h1.33l2.92,8.57h-1.18l-.92-2.69h-3.04Zm2.81-.86l-.84-2.47c-.19-.56-.32-1.07-.44-1.56h-.03c-.13.51-.27,1.03-.43,1.55l-.84,2.48h2.58Z"/>
    <path d="m19.44,20.07c-.06-1.19-.14-2.63-.13-3.7h-.04c-.29,1-.65,2.07-1.08,3.25l-1.51,4.16h-.84l-1.39-4.08c-.41-1.21-.75-2.31-.99-3.33h-.03c-.03,1.07-.09,2.5-.17,3.79l-.23,3.67h-1.05l.6-8.57h1.41l1.46,4.14c.36,1.05.65,2,.86,2.88h.04c.22-.86.52-1.8.9-2.88l1.53-4.14h1.41l.53,8.57h-1.08l-.22-3.76Z"/>
    <path d="m23.7,21.14l-.89,2.69h-1.14l2.91-8.57h1.33l2.92,8.57h-1.18l-.92-2.69h-3.04Zm2.81-.86l-.84-2.47c-.19-.56-.32-1.07-.44-1.56h-.03c-.13.51-.27,1.03-.43,1.55l-.84,2.48h2.58Z"/>
  </g>
  <g>
    <path d="m10.96,25.26s.01-.06.03-.08c.02-.02.05-.03.07-.03.04,0,.06.03.08.08v.18c.08-.09.15-.18.24-.27.08-.09.17-.17.25-.25.09-.07.18-.13.28-.18s.19-.07.3-.07c.06,0,.12.01.19.03.21.07.36.18.45.32s.13.3.13.47c0,.14-.02.28-.06.42s-.09.27-.15.4c-.06.12-.13.24-.2.34-.07.1-.13.17-.19.22-.07.06-.16.11-.26.16-.11.05-.21.07-.32.07-.07,0-.14-.01-.21-.04-.07-.03-.13-.08-.19-.14,0-.03.01-.06.03-.08.02-.02.04-.03.06-.03.03,0,.05.02.08.05.04.01.07.02.1.03s.07.01.1.01c.1,0,.2-.03.3-.09.09-.06.17-.13.25-.22.07-.09.14-.18.19-.28.05-.1.09-.19.12-.28.03-.08.04-.15.05-.23.01-.08.02-.15.02-.22,0-.16-.03-.29-.1-.4s-.16-.15-.29-.15c-.1,0-.2.03-.3.08s-.2.12-.3.21c-.09.09-.18.18-.27.3-.08.11-.16.22-.22.33.02.16.03.31.04.44.01.13.02.26.02.4,0,.18-.01.35-.04.52-.02.17-.06.32-.11.46-.05.14-.11.24-.19.33-.08.08-.17.12-.28.12-.14,0-.24-.06-.3-.17-.05-.12-.08-.28-.08-.48,0-.12,0-.22.02-.32.01-.1.02-.17.04-.21.04-.12.08-.23.12-.34.05-.11.1-.22.15-.32.05-.11.11-.21.17-.32.06-.11.12-.22.19-.34,0-.07,0-.14,0-.2s0-.13,0-.2Zm0,1.88c0-.07,0-.14.01-.19,0-.06,0-.11.01-.17,0-.05,0-.1.01-.16,0-.05,0-.11,0-.17,0-.03,0-.05,0-.08,0-.03,0-.05,0-.08-.05.1-.1.21-.15.32-.05.11-.1.22-.14.34-.04.12-.08.23-.11.35-.03.12-.04.24-.04.36,0,.09,0,.15.03.19s.04.06.06.06.06-.02.09-.06c.04-.04.07-.1.1-.17.03-.07.06-.15.08-.25.02-.09.04-.19.05-.29Z"/>
    <path d="m12.43,27.6s0,0,0,0,0,0-.01,0c-.03,0-.05,0-.07-.03-.02-.02-.02-.04-.02-.07,0-.03.01-.06.04-.08.03-.06.07-.14.13-.25.05-.11.11-.22.16-.34.05-.12.11-.22.16-.33s.09-.18.12-.22c.03-.03.06-.04.1-.04.03,0,.07.01.11.03.07.1.13.18.18.25.05.07.09.14.12.19s.06.12.07.17c.01.06.02.12.02.18,0,.08,0,.17-.03.27-.02.1-.04.22-.07.37.09-.02.17-.04.25-.08.08-.03.17-.06.25-.1.01,0,.03-.01.04-.01.03,0,.05,0,.07.03.01.02.02.04.02.06,0,.03-.03.06-.08.1s-.12.08-.19.12-.15.08-.23.11c-.08.03-.14.06-.19.08h-.05c-.06,0-.12-.03-.15-.09s-.06-.12-.06-.18c0-.06,0-.12.03-.18s.03-.12.04-.18c.01-.08.02-.15.02-.22,0-.1-.01-.19-.04-.27-.03-.08-.07-.17-.13-.27-.01.02-.04.06-.06.11-.03.05-.06.11-.09.18-.03.07-.07.14-.11.21s-.08.14-.12.21-.07.12-.11.17c-.03.05-.06.08-.09.09Z"/>
    <path d="m14.25,26.67c.04-.05.08-.08.11-.08.04,0,.06.03.06.1-.03.18-.06.34-.08.49-.03.15-.04.27-.04.37,0,.1.02.15.06.16.03.01.05.02.09.02.09,0,.18-.03.29-.08.11-.05.2-.12.28-.2.02,0,.04-.01.05-.01.03,0,.05,0,.06.03s.03.04.03.06c0,.02,0,.04-.03.06-.18.15-.34.26-.48.32-.13.06-.25.09-.34.09-.11,0-.19-.04-.24-.11-.05-.07-.07-.16-.07-.27,0-.2.03-.37.08-.53.05-.15.11-.3.17-.44Zm.35-.99s.03.06.03.08c0,.03,0,.06-.03.08-.02.02-.04.04-.07.04s-.06-.01-.08-.04c-.02-.03-.04-.05-.04-.08,0-.03.01-.05.03-.08.02-.02.05-.03.08-.03.03,0,.06,0,.08.03Z"/>
    <path d="m15.39,26.61s0,.09.01.13c0,.04,0,.09,0,.13,0,.01,0,.02,0,.04,0,.01,0,.03,0,.04.03-.05.06-.11.1-.18.04-.07.09-.14.14-.2.05-.06.1-.12.15-.17.05-.05.09-.07.13-.07.09,0,.15.02.18.07.04.05.05.09.05.14,0,.16-.01.31-.04.46-.03.15-.04.3-.04.45,0,.04,0,.08,0,.12s0,.08.01.12l.09.07.3-.09s.04-.01.04-.01c.06,0,.09.03.09.09,0,.03-.02.05-.06.08s-.08.06-.13.08c-.05.02-.1.04-.15.06-.05.01-.09.02-.12.02-.1,0-.19-.05-.26-.16s-.11-.25-.11-.44c0-.08,0-.15.01-.22,0-.07.01-.13.02-.18-.07.09-.13.19-.18.29-.05.1-.11.2-.16.3-.02.03-.04.07-.05.12s-.04.09-.06.13c-.02.04-.05.07-.08.1-.03.03-.07.04-.11.04-.04,0-.07-.01-.1-.04s-.04-.06-.05-.11c0-.07,0-.13.02-.21.01-.07.03-.15.05-.22s.04-.15.06-.21c.02-.07.04-.13.05-.19h0s0-.08,0-.12,0-.09.01-.13c0-.04.01-.08.03-.11s.04-.04.07-.04c.05,0,.08.02.09.06h0Z"/>
    <path d="m16.73,27.13c.01-.12.02-.24.04-.35s.04-.23.06-.34c-.13.03-.22.05-.28.08-.06.02-.1.03-.13.03-.04,0-.07-.03-.07-.09,0-.05.04-.11.11-.15.07-.05.15-.09.25-.13.06-.05.1-.1.14-.14.03-.04.06-.08.08-.13s.04-.09.05-.15c.01-.05.03-.12.05-.19.01-.03.02-.09.04-.16s.04-.15.06-.22c.03-.08.06-.14.1-.2.04-.06.09-.09.15-.09s.09.03.09.08c0,.03,0,.07-.02.12-.01.05-.03.12-.05.2s-.04.19-.07.31c-.03.12-.06.26-.09.43.04,0,.07,0,.1,0,.03,0,.06,0,.1,0h.14c.06,0,.11,0,.16,0,.05,0,.1.02.13.03.04.01.05.04.05.07s-.03.06-.09.08c-.06.02-.14.04-.22.06-.08.02-.17.04-.26.05-.09.02-.15.03-.2.05-.04.17-.07.36-.1.55-.03.2-.04.38-.04.56,0,.02,0,.05,0,.09s0,.07,0,.11,0,.07.01.1c0,.03.01.04.02.04.04,0,.12-.06.25-.18.12-.12.26-.29.4-.51.02-.02.04-.03.06-.03s.05,0,.07.02c.02.02.03.04.03.06,0,.02,0,.04-.03.06-.05.1-.11.2-.18.3-.07.1-.14.2-.22.28s-.15.15-.23.21-.15.08-.21.08c-.06,0-.11-.02-.15-.06-.04-.04-.07-.1-.09-.16-.02-.06-.04-.13-.05-.2,0-.07-.01-.13-.01-.18,0-.07,0-.14,0-.21,0-.07.01-.13.02-.19Z"/>
    <path d="m21.1,24.8s.05.06.05.09c0,.06-.04.09-.11.09-.05-.02-.09-.04-.12-.05s-.06-.03-.09-.04c-.03,0-.06-.02-.08-.02-.03,0-.07,0-.11,0-.06,0-.13.01-.21.04-.08.03-.15.06-.22.11-.07.05-.13.1-.18.16-.05.06-.08.12-.08.19,0,.08.02.15.07.22.05.07.11.15.19.22s.16.15.25.23c.09.08.19.16.28.25.09.09.18.19.25.29s.14.22.18.35c.14.04.27.08.39.13.12.05.23.09.34.13.03.02.05.05.05.09,0,.05-.04.08-.11.08-.09-.03-.19-.06-.29-.09s-.19-.06-.29-.09c0,.03,0,.06,0,.09,0,.03,0,.07,0,.09,0,.17-.04.31-.11.42-.07.12-.17.21-.3.29-.12.07-.27.13-.43.16-.16.03-.33.05-.5.05-.14,0-.28-.02-.41-.05-.13-.03-.24-.08-.33-.14-.1-.06-.17-.13-.22-.22s-.08-.19-.08-.31c0-.14.03-.26.09-.37.06-.11.14-.2.23-.28.1-.08.21-.13.34-.17s.26-.06.4-.06c.11,0,.23,0,.35.03.12.02.25.05.41.08-.03-.07-.08-.14-.14-.22-.06-.08-.14-.16-.22-.24-.08-.08-.16-.16-.24-.25-.08-.08-.16-.17-.23-.26-.07-.09-.13-.17-.17-.26-.04-.09-.07-.18-.07-.27s.02-.17.07-.24c.05-.08.11-.14.19-.2.08-.06.17-.11.27-.14.1-.03.2-.05.31-.05.2,0,.41.05.61.15Zm-.35,2.96c.07-.05.12-.11.15-.18.03-.07.04-.14.04-.22,0-.05,0-.1-.02-.15-.01-.05-.03-.1-.05-.15l-.16-.03c-.1-.02-.21-.03-.31-.05-.11-.01-.22-.02-.33-.02-.06,0-.14,0-.23.02-.1.01-.19.04-.29.08-.09.04-.18.09-.24.16-.07.07-.1.16-.1.27,0,.09.02.16.06.22.04.06.1.11.17.15s.15.06.24.08.17.02.26.02c.16,0,.31-.02.45-.06s.27-.09.36-.15Z"/>
    <path d="m21.81,27.13c.01-.12.02-.24.04-.35s.04-.23.06-.34c-.13.03-.22.05-.28.08-.06.02-.1.03-.13.03-.04,0-.07-.03-.07-.09,0-.05.04-.11.11-.15.07-.05.15-.09.25-.13.06-.05.1-.1.14-.14.03-.04.06-.08.08-.13s.04-.09.05-.15c.01-.05.03-.12.05-.19.01-.03.02-.09.04-.16s.04-.15.06-.22c.03-.08.06-.14.1-.2.04-.06.09-.09.15-.09s.09.03.09.08c0,.03,0,.07-.02.12-.01.05-.03.12-.05.2s-.04.19-.07.31c-.03.12-.06.26-.09.43.04,0,.07,0,.1,0,.03,0,.06,0,.1,0h.14c.06,0,.11,0,.16,0,.05,0,.1.02.13.03.04.01.05.04.05.07s-.03.06-.09.08c-.06.02-.14.04-.22.06-.08.02-.17.04-.26.05-.09.02-.15.03-.2.05-.04.17-.07.36-.1.55-.03.2-.04.38-.04.56,0,.02,0,.05,0,.09s0,.07,0,.11,0,.07.01.1c0,.03.01.04.02.04.04,0,.12-.06.25-.18.12-.12.26-.29.4-.51.02-.02.04-.03.06-.03s.05,0,.07.02c.02.02.03.04.03.06,0,.02,0,.04-.03.06-.05.1-.11.2-.18.3-.07.1-.14.2-.22.28s-.15.15-.23.21-.15.08-.21.08c-.06,0-.11-.02-.15-.06-.04-.04-.07-.1-.09-.16-.02-.06-.04-.13-.05-.2,0-.07-.01-.13-.01-.18,0-.07,0-.14,0-.21,0-.07.01-.13.02-.19Z"/>
    <path d="m23.34,26.34s.05-.05.08-.05c.02,0,.04,0,.06.02s.03.04.03.07c0,0,0,.02-.01.04-.04.13-.08.29-.12.48-.04.19-.05.37-.05.54,0,.13.01.23.04.32.03-.02.06-.04.09-.05h0c.03-.06.07-.1.12-.15.05-.05.09-.1.12-.15.04-.05.07-.12.11-.2.04-.08.08-.16.12-.23s.08-.14.12-.19.08-.08.12-.08c.04,0,.07.02.1.05.03.03.04.07.04.12,0,.06,0,.14-.02.23s-.02.19-.02.3c0,.03,0,.06,0,.1,0,.04,0,.08.01.12s.02.07.03.1c.01.03.03.04.04.04.03,0,.06-.01.09-.04.04-.03.07-.04.1-.04.02,0,.03,0,.04.03,0,.02.01.03.01.04,0,.03-.01.06-.04.09-.03.03-.05.05-.09.07-.03.02-.07.03-.1.04-.03,0-.06.01-.08.01-.05,0-.09-.02-.13-.05-.03-.03-.06-.07-.08-.12-.02-.05-.04-.09-.05-.14-.01-.05-.02-.09-.03-.11-.03.06-.08.13-.13.2-.05.07-.11.13-.17.18-.06.05-.12.1-.19.13-.07.03-.13.05-.19.05-.04,0-.07,0-.11-.02-.04-.02-.07-.04-.1-.08-.03-.04-.06-.09-.08-.15-.02-.06-.03-.14-.03-.23s0-.2.03-.32c.02-.12.05-.25.08-.37s.07-.24.11-.35c.04-.11.07-.19.11-.24Z"/>
    <path d="m25.44,26.56s.07.02.1.04l.02-.05c.04-.17.08-.33.12-.5.04-.17.09-.33.13-.49.01-.05.03-.11.06-.2s.05-.17.09-.25c.03-.08.08-.15.13-.21.05-.06.11-.09.18-.09s.12.02.14.06c.03.04.04.1.04.17,0,.05,0,.11-.02.17-.01.06-.03.12-.04.18-.02.06-.03.12-.05.18-.02.06-.04.11-.05.16-.05.15-.11.31-.18.47s-.15.33-.24.49c-.03.14-.05.27-.07.41-.02.14-.05.27-.07.41h0s0,.06-.01.1,0,.07,0,.11c0,.09.01.17.04.23.04,0,.09-.02.14-.06.05-.04.11-.09.16-.15s.1-.11.15-.17c.04-.05.08-.09.1-.11.03-.02.05-.03.07-.03.06,0,.09.03.09.09,0,.02,0,.05-.02.07-.06.06-.12.13-.18.2-.06.07-.12.13-.18.19-.06.06-.11.11-.17.14s-.11.06-.16.06c-.05,0-.09-.02-.13-.05-.04-.03-.06-.08-.09-.14-.02-.06-.04-.13-.05-.21,0-.08-.01-.17-.01-.26v-.1s0-.06,0-.1c-.04.06-.1.12-.16.2s-.12.14-.19.21-.13.12-.19.17c-.06.05-.12.07-.16.07h-.03c-.06-.03-.1-.06-.13-.07-.02-.01-.04-.05-.05-.1,0-.13.02-.27.07-.42.05-.15.11-.28.19-.4.08-.12.17-.22.27-.3s.2-.12.31-.12h.03Zm-.6,1.04c.11-.12.22-.25.32-.39s.2-.3.3-.45c-.01,0-.03,0-.04,0h0c-.17.08-.3.2-.38.35-.08.15-.14.32-.18.5Zm.88-.14s0,.01,0,.02c0,0,0-.01,0-.02Zm.48-2.05s0,0,0,0,0,0,0,0c0,0,0,0,0,.02h0s0,0,0,0Z"/>
    <path d="m26.47,26.67c.04-.05.08-.08.11-.08.04,0,.06.03.06.1-.03.18-.06.34-.08.49s-.04.27-.04.37c0,.1.02.15.06.16.03.01.05.02.09.02.09,0,.18-.03.29-.08.11-.05.2-.12.28-.2.02,0,.04-.01.05-.01.03,0,.05,0,.07.03s.03.04.03.06c0,.02,0,.04-.03.06-.18.15-.34.26-.48.32-.13.06-.25.09-.34.09-.11,0-.19-.04-.24-.11-.05-.07-.07-.16-.07-.27,0-.2.03-.37.08-.53s.11-.3.17-.44Zm.35-.99s.03.06.03.08c0,.03,0,.06-.03.08-.02.02-.04.04-.07.04s-.06-.01-.08-.04-.03-.05-.03-.08c0-.03.01-.05.03-.08.02-.02.05-.03.08-.03.03,0,.06,0,.08.03Z"/>
    <path d="m27.8,26.68s0,0,0,.01c.16-.07.33-.13.5-.18s.35-.1.51-.14c.07,0,.1.03.1.09,0,.03-.02.06-.05.08-.12.05-.23.09-.34.14s-.22.1-.34.15c.03.05.05.12.05.18,0,.05-.01.12-.04.21-.03.08-.06.17-.11.25-.04.08-.1.16-.17.23-.07.07-.15.12-.23.15-.04.01-.08.02-.12.02s-.08,0-.13.01c-.06,0-.12-.05-.17-.12-.05-.07-.08-.15-.08-.25,0-.08.02-.17.05-.28.03-.11.08-.22.13-.32.05-.1.1-.19.16-.27s.11-.11.15-.11c.03,0,.06.02.08.05l.03.07h0Zm-.04.33c-.06-.03-.1-.07-.11-.12-.05.1-.08.22-.1.33s-.03.23-.03.34c.06,0,.11-.04.16-.09.05-.05.09-.11.12-.17.03-.06.06-.12.08-.17s.03-.08.03-.09h0s-.05-.02-.08-.02c-.03,0-.05,0-.07,0Z"/>
  </g>
  <line class="cls-2" x1="1.71" y1="19.41" x2="6.81" y2="16.31"/>
  <line class="cls-2" x1="3.24" y1="20.48" x2="8.34" y2="17.38"/>
  <line class="cls-2" x1="4.96" y1="21.28" x2="10.06" y2="18.18"/>
</svg>