<?xml version="1.0" encoding="UTF-8"?>
<svg id="Capa_1" data-name="Capa 1" xmlns="http://www.w3.org/2000/svg" viewBox="0 0 283.46 170.08">
  <defs>
    <style>
      .cls-1 {
        fill: #f6c2ac;
      }

      .cls-2 {
        fill: #fff;
      }

      .cls-3 {
        fill: #1e4951;
        font-family: RozhaOne-Regular, 'Rozha One';
        font-size: 39.86px;
      }

      .cls-4 {
        fill: #9f988e;
        font-family: Avenir-Heavy, Avenir;
        font-size: 21.96px;
        font-weight: 800;
        letter-spacing: .15em;
      }
    </style>
  </defs>
  <path class="cls-1" d="m196.77,51.5c-.2-.11-.4-.24-.82-.49,5.03-6.38,6.85-13.91,8.19-21.76-.3.01-.57-.04-.79.05-1.66.66-3.3,1.35-4.95,2.04-.28.12-.53.36-.82.43-3.24.75-5.51,3.01-7.97,5-3.39,2.73-6.88,5.32-11.01,6.86-.64.24-1.32.4-1.99.56-2.3.55-4.6,1.08-6.91,1.61-.28.06-.59.04-.88.06l-.07-.27c1.07-.39,2.14-.8,3.21-1.18,5.05-1.79,9.12-4.92,12.42-9.11,3.58-4.54,4.95-9.89,5.39-15.49.21-2.65-.13-5.35-.28-8.02-.03-.57-.25-1.15-.5-1.67-.69-1.44-1.67-1.67-2.99-.78-.31.21-.64.41-.99.55-.96.37-1.97.64-2.91,1.06-.9.39-1.74.92-2.62,1.39-.59-3.29-1.91-6.12-4.87-7.92-2-1.22-4.08-1.68-6.21-.28-.47.31-.7.22-.95-.28-1.48-3.03-4.1-2.79-6.02-1.11-1.08.95-2.09,1.98-3.24,3.07-.26-.34-.51-.64-.73-.96-1.35-2.02-3.69-2.54-5.68-1.18-.96.66-1.8,1.49-2.7,2.23-.44.36-.89.7-1.4,1.1-.8-1.47-1.86-2.45-3.2-3.14-.96-.49-1.75-.28-2.56.4-.53.45-1.2.94-1.85,1.02-2.98.37-4.13,2.37-4.37,4.96-.22,2.31-.05,4.66-.05,6.99,0,.2.03.4.05.74-.47-.05-.86-.12-1.25-.14-.51-.03-1.14-.21-1.53.01-1.41.82-2.22-.08-3.04-.93-3.84-3.95-11.71-3.26-15.41,1.16-.52.63-.86,1.7-1.48,1.87-.59.16-1.41-.62-2.16-.93-1.01-.41-2.03-.53-3.12-.15-.77.27-1.61.34-2.43.48-1.76.31-2.5.97-2.66,2.77-.29,3.38-.02,6.75.62,10.08.26,1.34.56,2.66.66,4.1-.19-.29-.41-.57-.57-.88-1.14-2.32-2.25-4.66-3.39-6.98-.72-1.46-1.8-2.57-3.37-3.31-.72,1.04-.76,2.22-.7,3.37.18,3.49,1.21,6.77,2.6,9.95.24.55.37,1.14.38,1.78-1.11-.94-2.17-1.95-3.34-2.81-1.33-.98-2.74-1.84-4.13-2.74-.26-.17-.55-.28-.84-.4-2.64-1.06-4.1-.3-4.61,2.5-.22,1.17-.2,2.38-.27,3.41-2.58.23-5.09.32-7.55.73-1.46.24-2.89.89-4.24,1.54-1.16.56-1.59,1.62-1.35,2.95.47,2.58,1.87,4.69,3.57,6.55,1.81,1.97,3.84,3.75,5.83,5.55.55.5.65.81.19,1.43-1.17,1.56-2.07,3.28-2.23,5.26-.23,2.92,1.31,4.98,3.42,6.71,3.11,2.55,6.79,3.91,10.61,4.94,1.22.33,2.45.62,3.88.97-.36.29-.6.55-.89.72-2.21,1.29-4.34,2.69-6.01,4.67-.59.7-1.11,1.49-1.49,2.32-.61,1.31-.16,2.42,1.12,3.11,2.12,1.14,4.39.93,6.66.7.73-.07,1.45-.16,2.17-.24.02.1.04.19.06.29-.92.48-1.86.94-2.77,1.45-.42.23-.82.52-1.18.83-2.39,2.11-2.23,4.87.36,6.71,1.06.76,2.04,1.65,3.16,2.31,3.59,2.12,7.45,2.18,11.41,1.33,4.74-1.01,8.64-3.34,11.52-7.29.26-.36.46-.75.7-1.17,7.83,6.16,15.89,6.35,24.25,1.04.92-.72,1.87-1.39,2.89-1.98.45-.32.9-.65,1.44-1.03.01.09.03.18.04.27.24-.12.48-.25.73-.36.03-.61.14-1.21.54-1.8,1.43-2.12,2.02-4.44,1.23-7.01.82-.4,1.41-.44,2.16.21,5.12,4.39,11,7.23,17.71,8.06,4.2.52,8.34.07,11.73-2.83,5.44-4.66,7.13-11.53,1.45-17.66-1.15-1.24-2.54-2.27-3.92-3.48,1.12-.2,2.25-.36,3.37-.6,4.13-.87,7.86-2.53,10.92-5.52,1.06-1.03,1.8-2.27,1.99-3.77.26-2.04-.57-3.62-2.39-4.64Z"/>
  <g id="_9GjeN9" data-name="9GjeN9">
    <path class="cls-2" d="m146.39,94.3c.45-.32.9-.65,1.44-1.03.01.09.03.18.04.27.24-.12.48-.25.73-.36.03-.62.14-1.21.54-1.8,1.43-2.12,2.02-4.44,1.23-7.01.82-.4,1.41-.44,2.16.21,5.12,4.39,11,7.23,17.71,8.06,4.2.52,8.34.07,11.73-2.83,5.44-4.66,7.13-11.53,1.45-17.66-1.15-1.24-2.54-2.27-3.92-3.48,1.12-.2,2.25-.36,3.37-.6,4.13-.87,7.86-2.53,10.92-5.52,1.06-1.03,1.8-2.27,1.99-3.77.26-2.04-.57-3.62-2.39-4.64-.2-.11-.4-.24-.82-.49,5.02-6.38,6.85-13.91,8.19-21.76-.3.01-.57-.04-.79.05-1.66.66-3.3,1.35-4.95,2.04-.28.12-.53.36-.82.43-3.24.75-5.51,3.01-7.97,5-3.39,2.73-6.88,5.32-11.01,6.86-.64.24-1.32.4-1.99.56-2.3.55-4.6,1.08-6.91,1.61-.28.06-.59.04-.88.06l-.07-.27c1.07-.39,2.14-.8,3.21-1.18,5.05-1.79,9.12-4.92,12.42-9.11,3.58-4.54,4.95-9.89,5.39-15.49.21-2.65-.13-5.35-.28-8.02-.03-.57-.25-1.15-.5-1.67-.69-1.44-1.67-1.67-2.99-.78-.31.21-.64.41-.99.55-.96.37-1.97.64-2.91,1.06-.9.39-1.74.92-2.62,1.39-.58-3.29-1.91-6.12-4.87-7.92-2-1.22-4.08-1.68-6.21-.28-.47.31-.7.22-.95-.28-1.48-3.03-4.1-2.79-6.02-1.11-1.08.95-2.09,1.98-3.24,3.07-.26-.34-.51-.64-.73-.96-1.35-2.02-3.69-2.54-5.68-1.18-.96.66-1.8,1.49-2.7,2.23-.44.36-.89.7-1.4,1.1-.8-1.47-1.86-2.45-3.2-3.14-.96-.49-1.75-.28-2.56.4-.54.45-1.2.94-1.85,1.02-2.98.37-4.13,2.37-4.37,4.96-.22,2.31-.05,4.66-.05,6.99,0,.2.03.4.05.74-.47-.05-.86-.12-1.25-.14-.52-.03-1.14-.21-1.53.01-1.41.82-2.22-.08-3.04-.93-3.84-3.95-11.71-3.26-15.41,1.16-.52.63-.86,1.7-1.48,1.87-.59.16-1.41-.62-2.16-.93-1.01-.41-2.03-.53-3.12-.15-.77.27-1.61.34-2.43.48-1.76.31-2.5.97-2.66,2.77-.29,3.38-.02,6.75.62,10.08.26,1.34.56,2.66.66,4.1-.19-.29-.41-.57-.57-.88-1.14-2.32-2.25-4.66-3.39-6.98-.72-1.46-1.8-2.57-3.37-3.31-.72,1.04-.76,2.22-.7,3.37.18,3.49,1.21,6.77,2.6,9.95.24.55.37,1.14.38,1.78-1.11-.94-2.17-1.95-3.34-2.81-1.33-.98-2.74-1.84-4.13-2.74-.26-.17-.55-.28-.84-.4-2.64-1.05-4.1-.3-4.61,2.5-.22,1.17-.2,2.38-.27,3.41-2.58.23-5.09.32-7.55.73-1.46.24-2.89.89-4.24,1.54-1.16.56-1.59,1.62-1.35,2.95.47,2.58,1.87,4.69,3.57,6.55,1.81,1.97,3.84,3.75,5.83,5.55.55.5.65.82.19,1.43-1.17,1.56-2.07,3.28-2.23,5.26-.23,2.92,1.31,4.98,3.42,6.71,3.11,2.55,6.79,3.91,10.61,4.94,1.22.33,2.45.62,3.88.97-.36.29-.6.55-.89.72-2.21,1.29-4.34,2.69-6.01,4.67-.59.7-1.11,1.49-1.49,2.32-.61,1.31-.16,2.42,1.12,3.11,2.12,1.14,4.39.93,6.66.7.73-.07,1.45-.16,2.17-.24.02.1.04.19.06.29-.92.48-1.86.94-2.77,1.45-.42.23-.82.52-1.18.83-2.39,2.11-2.23,4.87.36,6.71,1.06.76,2.04,1.65,3.16,2.31,3.59,2.12,7.45,2.18,11.41,1.33,4.74-1.01,8.64-3.34,11.52-7.29.26-.36.46-.75.7-1.17,7.83,6.16,15.89,6.35,24.25,1.04.92-.72,1.87-1.39,2.89-1.98Zm1.26-2.55c-3.46,2.72-7.31,2.66-11.3,1.68-3.31-.82-6.61-1.64-9.91-2.48-1.16-.3-2.3-.68-3.46-1.02-4.22-2.2-6.92-5.66-8.73-9.91-.2-.46-.19-1.09-.07-1.59.52-2.24,1.84-3.87,3.89-4.95,1.93-1.02,3.69-2.3,5.01-4.08.4-.54.76-.4,1.24-.17,1.05.51,2.1,1.08,3.2,1.42.89.27,1.34.77,1.73,1.57,2.58,5.23,6.65,8.79,12.21,10.61,2.3.75,4.64,1.25,7.08,1.29.49,0,1.35.38,1.39.66.32,2.65.07,5.15-2.27,6.99Zm-8.9-40.17c.19-1.51.99-2.59,2.39-3.26,1.88-.9,3.74-.81,5.6-.04,2.59,1.08,3.66,2.6,3.37,5.37-.17,1.65-.8,3.24-1.23,4.86-2.55,4.95-5.84,8.4-10.63,10.68-2.76,1.31-5.67,1.93-8.73,1.29-4.88-1.01-8.47-4.08-11.64-7.63-1.93-2.16-1.2-3.14,1.39-3.65.1-.02.21-.04.31-.04,1.06.04,1.56-.43,1.77-1.52.41-2.18,1.41-2.82,3.6-2.53.4.05.81.18,1.19.32,1.81.7,1.72.65,2.7-1.01,1.76-2.99,5.34-4.32,8.85-2.4.66.36.96.42,1.07-.45Zm12.06,3.96c.98.78,1.91,1.31,2.54,2.08.93,1.13,1.72,2.4,2.45,3.67,1.58,2.74,3.81,4.47,7.02,4.85,1.23.14,2.48.26,3.66.59.74.21,1.37.79,2.06,1.2-.49.63-.85,1.49-1.48,1.84-1.74.96-3.56,1.82-5.42,2.5-3.79,1.38-7.6,2.74-11.75,2.56-1.1-.05-2.23-.07-3.3.12-4.46.81-8.63-.21-12.7-1.9-.83-.35-1.64-.75-2.47-1.12-.02-.11-.05-.22-.07-.32,10.01-.97,15.87-6.96,19.47-16.07Zm-2.05,27.9c-3.54-.28-6.99-.87-10.16-2.5-3.44-1.77-6.13-4.42-8.17-7.72-.21-.34-.31-.75-.53-1.29,1.49.68,2.72,1.28,3.97,1.81,2.68,1.13,5.4,2.2,8.35,2.16,3.2-.04,6.42-.08,9.59-.44,5.25-.58,10.23-2.18,14.91-4.66.41-.22.85-.39,1.55-.71-.16.42-.19.55-.26.67-2.34,4.07-5.33,7.47-9.54,9.77-3.06,1.68-6.06,3.19-9.72,2.9Zm30.74-13.69c2.93,1.6,5.04,4.13,6.2,7.25,1.39,3.71.19,7.1-2.05,10.1-3.14,4.2-7.61,5.37-12.59,4.9-6.21-.58-11.69-3.07-16.68-6.73-.48-.35-.91-.79-1.36-1.18,2.35-1.25,4.52-2.36,6.65-3.53,4.55-2.51,7.48-6.41,9.44-11.12.48-1.17.27-1.84-.72-2.62-1.3-1.02-2.88-1.06-4.41-1.24-2.89-.34-5.43-1.33-7.13-3.82-1.07-1.56-2.04-3.18-3.05-4.77-.04-.06,0-.19.02-.39.54.14,1.05.22,1.51.41,2.23.92,4.5,1.79,6.67,2.83,3.32,1.6,6.74,3.08,9.83,5.07,2.55,1.63,5,3.39,7.68,4.84Zm13.25-7.16c-3.06,2.75-6.74,4.26-10.73,4.98-1.53.28-3.37.64-4.66.05-2.33-1.07-4.35-2.82-6.5-4.3-.02-.01,0-.06-.02-.22,2.43.37,4.72.17,6.9-.89.8-.39,1.64-.73,2.48-1.01,1.81-.6,3.64-1,5.52-.21,1,.42,1.82.08,2.4-.82.45-.69,1.11-1,1.87-.71,1.29.51,2.54,1.14,3.95,1.78-.36.41-.74.92-1.21,1.34Zm2.16-3.08c-.29.59-.72.83-1.34.6-.74-.28-1.47-.59-2.18-.92-1.45-.67-2.77-.72-3.87.68-.7.88-1.52.74-2.47.13.17-.2.25-.32.35-.4,2.06-1.59,4.12-3.18,6.19-4.76.18-.13.43-.28.63-.26,2.07.19,3.61,3.04,2.69,4.92Zm4.62-26.29c.13.08.25.16.38.25-.12.51-.23,1.02-.35,1.53-.94,4.32-2.1,8.56-4.02,12.58-1.82,3.81-4.22,7.13-7.65,9.58-1.54,1.1-3.32,1.93-5.07,2.69-1.48.63-3.16.79-4.6,1.48-3.49,1.66-6.88,1.63-10.37.05-2.54-1.15-5.18-2.1-7.76-3.15-.64-.26-1.26-.57-1.89-.86.03-.12.05-.23.08-.35.7-.02,1.4,0,2.09-.06,2.77-.22,5.33-1.04,7.63-2.64,1.55-1.08,3.13-1.97,5.14-1.88.52.02,1.06-.51,1.59-.79.86-.46,1.67-1.19,2.57-1.34,1.37-.23,2.32-.88,3.23-1.83.94-.98,2-1.86,3.05-2.74.81-.69,1.67-1.33,2.53-1.96,1.82-1.35,3.51-2.98,5.52-3.94,2.72-1.29,4.89-3,6.58-5.45.32-.47.88-.78,1.33-1.17Zm-28.92,14.78c.48-.23,1.07-.22,1.61-.35,1.23-.3,2.51-.48,3.68-.95,4.48-1.78,8.24-4.68,11.94-7.7,1.53-1.25,3.22-2.33,4.91-3.36,1.14-.69,2.4-1.17,3.62-1.72.5-.23,1.02-.4,1.53-.59.06.11.12.21.18.32-1.46,1.83-2.87,3.71-5.12,4.74-2.45,1.12-4.8,2.42-6.73,4.37-2.08,2.1-4.94,3.27-6.79,5.69-.41.53-1.27.72-1.94,1.05-1.03.52-2.06,1.02-3.09,1.53-.51.25-1.04.76-1.53.73-1.91-.13-3.42.73-4.88,1.72-5.13,3.52-10.59,3.66-16.27,1.64-.92-.33-1.36-1.91-.78-2.73.1-.14.33-.25.51-.26,2.69-.27,5.08-1.44,7.55-2.41.93-.37,1.98-.57,2.98-.57,2.93,0,5.86.18,8.61-1.15Zm-9.24-25.07c.31.61.71,1.36,1.27,1.64,1.1.54,1.18,1.17.96,2.28-.95,4.93.44,7.92,4.53,10.09,1.12.59,1.25,1.65.39,2.59-.95,1.04-1.84,2.13-2.73,3.21-1.72,2.1-3.28,4.39-5.77,5.66-1.84.93-3.78,1.65-5.7,2.41-.71.28-1.46.43-2.49.73,6.19-7.9,9.17-16,3.8-25.34,2.22-.71,3.42-2.31,4.24-4.3.15-.37.44-.67.67-1.01.1.06.19.11.29.17.17.63.24,1.3.53,1.86Zm.16-2.31c-.09-.82.52-1.3,1.33-1.1.42.1.83.34,1.2.57,2.26,1.42,2.97,3.71,3.34,6.14.27,1.77,1,3.27,2.18,4.59.8.9,1.6,1.8,2.35,2.75,1.38,1.74,1.51,3.91.43,5.36-.5.67-1.1.73-1.82.49-.74-.25-.88-.77-.74-1.48.07-.36.05-.74.07-1.13-2.96-.9-5.16-2.59-5.72-5.53-.34-1.78.12-3.74.35-5.6.09-.77.08-1.29-.75-1.5-1.88-.47-2.06-2.03-2.22-3.55Zm23.46-7.42c.12.03.24.06.36.09,1.43,8.35.41,16.39-4.4,23.49-4.41,6.51-10.96,10.02-18.63,11.35-.04-.09-.09-.18-.13-.26,1.13-1.28,2.28-2.55,3.39-3.85,1.03-1.21,1.99-2.47,3.02-3.67.41-.48.85-.79,1.59-.31,1,.65,2.09.41,2.66-.66.47-.88.58-1.93.87-2.91.25-.83.47-1.68.82-2.47.24-.56.7-1.02,1.02-1.55,2.01-3.25,4-6.51,6.02-9.75,1.66-2.66,3.02-5.42,3.12-8.64,0-.28.18-.56.28-.85Zm-7.07,1.45c.52-.25,1.08-.43,1.63-.64.96-.39,1.91-.78,2.87-1.16.42-.17.85-.32,1.28-.48.15.5.44.99.43,1.49-.03,2.74-1.1,5.17-2.47,7.47-2.1,3.52-4.27,7-6.43,10.49-.5.81-1.08,1.58-1.62,2.36-.17-.05-.33-.11-.5-.16.1-.38.15-.78.31-1.13.67-1.54,1.52-3.02,2.04-4.61,1.16-3.55,1.44-7.22,1.02-10.93-.14-1.26.33-2.15,1.46-2.69Zm-13.74-6.32c1.21-1.38,2.64-1.93,4.43-1.56,3.08.64,4.89,2.72,6.02,5.45,1.2,2.92,1.49,6.01,1.32,9.14-.2,3.71-.78,7.34-2.68,10.63-.56.97-.84.98-1.67.15-2.19-2.17-3.69-4.65-4-7.83-.24-2.46-1.77-4.13-3.99-5.15-1.23-.57-2.04-.47-2.88.53-.81.97-1.61,1.99-2.16,3.12-.69,1.4-1.69,2.3-3.4,2.86.14-1.01.31-1.87.37-2.75.28-4.62,2.42-8.32,5.6-11.52,1.02-1.02,2.1-1.99,3.06-3.07Zm-4.69-3.08c1.27-.92,2.66-.42,3.59.89.89,1.26.78,1.82-.61,3.12-.08.07-.15.14-.23.21-2.5,1.98-4.51,4.35-5.66,7.36-.06.15-.16.29-.37.65-.12-.43-.21-.66-.24-.9-.25-2.15-.5-4.3-.73-6.45-.04-.33-.12-.81.06-.98,1.36-1.35,2.66-2.8,4.2-3.92Zm-11.48,2.05c1.83-1.48,3.76-1.37,5.3.41.63.73,1.19,1.69,1.33,2.61.36,2.34.62,4.71.63,7.07.01,2.35-.32,4.71-.52,7.19-.34-.15-.45-.18-.52-.24-.18-.16-.35-.33-.51-.51-1.92-2.31-4.35-3.88-7.12-4.98-1.23-.49-2.43-.48-3.59.15-1.41.77-2.97-.08-2.98-1.68-.02-2.38,1.1-4.23,2.83-5.73,1.68-1.46,3.4-2.88,5.14-4.28Zm-15.27,11.41c-.29-2.66-.21-5.29.8-7.82.43-1.07,1.12-1.83,2.28-2.01,1.19-.19,2.26-.58,3.13-1.44.53-.53,1.16-.65,1.78-.22,1.06.73,2.07,1.52,3.3,2.44-.85.76-1.49,1.28-2.06,1.86-1.77,1.79-2.78,3.88-2.51,6.49.03.27-.32.79-.58.85-1.74.44-2.86,1.56-3.68,3.07-.44.82-.89.88-1.49.18-.28-.33-.5-.75-.61-1.17-.18-.73-.28-1.49-.36-2.24Zm-4.8,3.14c1.35-1.1,3.23-1.12,4.55.04.76.67,1.43,1.45,2.14,2.18.76-1.12,1.43-2.25,2.26-3.25,1.43-1.73,3.33-1.88,5.01-.56.17.13.69.13.78,0,.99-1.45,2.32-1.09,3.63-.7,2.55.75,4.59,2.33,6.44,4.18,2.97,2.97,4.67,6.59,4.96,10.75.29,4.1-.89,7.94-2.87,11.48-.95,1.7-2.23,3.21-3.39,4.79-.39.53-.85.42-1.14-.13-1.57-3.06-4.23-3.83-7.39-3.53-2.08.2-3.64,1.18-4.47,3.17-.15.37-.33.73-.55,1.21-1.42-1.1-2.96-1.12-4.46-.99-.74.06-.86-.19-1.02-.75-1.73-6.32-4.64-12.09-8.33-17.48-.62-.9-1.02-1.76-.44-2.86.27-.51.36-1.12.57-1.66.85-2.2,1.83-4.33,3.71-5.87Zm-17.01.1c1.26-1.77,2.94-2.94,4.98-3.7,3.66-1.37,8.57-.23,10.92,2.57.37.44.53.75.02,1.2-1.71,1.51-2.63,3.51-3.37,5.61-.27.77-.54,1.53-.88,2.48-.34-.38-.58-.6-.78-.86-1.09-1.4-2.3-2.71-3.98-3.37-2.08-.82-4.21-1.51-6.33-2.19-1.28-.41-1.39-.63-.59-1.74Zm-16.06,16.73c-.96-2.71-1.81-5.44-1.69-8.36.02-.58.23-1.15.36-1.73.14-.04.28-.08.42-.12.8,1.17,1.74,2.28,2.38,3.53,2.05,3.98,3.99,8.02,6,12.03.35.7.83,1.35,1.25,2.02.21-.1.43-.2.64-.3-.2-.28-.46-.54-.59-.85-1.76-4.18-3.2-8.46-3.56-13.01-.18-2.36-.26-4.75-.19-7.11.05-1.57.69-1.99,2.24-2.12.61-.05,1.24-.15,1.82-.33,1.28-.39,2.46-.32,3.7.24,1.93.87,3.89,1.75,5.92,2.34,3.83,1.11,6.9,3.14,9.2,6.43,4,5.73,7.02,11.94,9.18,18.57.22.69.05,1-.61,1.36-.86.47-1.65,1.11-2.34,1.81-.55.55-.78,1.59-1.38,1.84-.59.24-1.48-.26-2.24-.43-1.92-.42-3.66.11-4.11,1.64-.53,1.79-1.57,2.57-3.3,2.71-.1,0-.19.09-.29.09-.66.04-1.37.24-1.98.07-1.93-.52-3.78-1.37-5.73-1.75-2.82-.55-4.87-2.15-6.68-4.21-3.73-4.25-6.53-9.04-8.41-14.37Zm-9.6-1.38c.77.05,1.58.22,2.26.56,3.21,1.6,5.98,3.86,8.45,6.39,1.61,1.65,2.67,3.83,4.03,5.73.87,1.21,1.86,2.34,2.79,3.51-.04.07-.09.15-.13.22-1.02-.52-2.14-.91-3.03-1.59-3.76-2.85-7.49-5.73-11.14-8.71-1.65-1.34-3.14-2.89-3.88-5.01-.27-.77,0-1.13.65-1.09Zm-1.6.67c.1,0,.2.01.3.02.43,2.72,2.33,4.39,4.22,6.06.7.62,1.43,1.19,2.16,1.77,2.29,1.82,4.52,3.73,6.9,5.43,2.06,1.47,4.29,2.71,6.74,4.22-.58-.04-.92-.01-1.23-.08-4.89-1.12-9.81-1.32-14.78-.66-.3.04-.83-.21-.96-.48-.92-1.85-1.9-3.69-2.6-5.62-1.06-2.93-1.7-5.97-1.25-9.13.07-.52.34-1.02.52-1.53Zm-10.5,6.65c2.73-.82,5.54-.88,8.37-.89.73,0,.97.2,1.1.83.68,3.33,1.79,6.5,3.45,9.48.1.19.14.41.27.81-6.03-1.85-11.89-3.58-15.91-8.64,0-.16.01-.33.02-.49.9-.38,1.78-.83,2.71-1.11Zm5.67,15.02c-1.04-1.04-2.23-1.94-3.29-2.96-2.19-2.11-4.21-4.36-5.37-7.23-.29-.71-.33-1.53-.49-2.3.15-.07.3-.14.44-.2,3.99,4.59,9.39,6.62,15.06,8.28-1.13.84-2.21,1.55-3.19,2.39-.67.57-1.2,1.31-1.8,1.97-.42.46-.79.63-1.36.06Zm15.51,19c-3.18-.57-6.35-1.33-9.16-2.96-2.2-.81-4.15-1.92-5.83-3.53-2.22-2.12-2.77-4.78-1.55-7.61,1.12-2.58,2.83-4.71,4.8-6.65,1.18-1.16,2.59-2,4.21-2.29,5.82-1.02,11.61-.62,17.31.77,3.77.92,7.47,2.18,11.22,3.21.68.19.78.53.95,1.11.28.94.56,1.99,1.18,2.68,1.46,1.59,3.09,3.02,4.71,4.46.63.56.77,1.06.09,1.58-1.8,1.37-3.52,2.93-5.49,4-5.4,2.91-11.23,4.56-17.32,5.18-1.7.17-3.48.35-5.14.05Zm1.77,11.32c-1.83.29-3.7.47-5.54.45-1.02-.01-2.09-.39-3.04-.83-1.21-.56-1.38-1.34-.78-2.54.17-.34.37-.66.61-.96,2.19-2.75,5.11-4.58,8.1-6.3.43-.25.99-.28,1.5-.35,2.99-.43,5.98-.84,8.98-1.27.58-.08,1.16-.21,1.73-.32.03.11.06.21.09.32-.84.8-1.68,1.6-2.53,2.4-1.72,1.63-3.58,3.15-4.02,5.71-.05.32-.53.58-.84.83-.74.6-1.48,1.2-2.27,1.74-.63.44-1.28,1.02-1.99,1.13Zm-3.94,8.98c-1.34-1.26-1.44-2.49-.47-4.05.67-1.08,1.54-1.82,2.7-2.28,1.73-.69,3.12-1.74,4.25-3.3.61-.84,1.79-1.28,2.75-1.84.3-.17.72-.15,1.18-.23-.91-1.62-.95-1.87.28-3.2,1.82-1.97,3.81-3.79,5.57-5.8,1.59-1.81,3.93-1.76,5.83-2.93.06.31.13.44.09.5-1.37,2.45-1.26,5.11-1.03,7.76.11,1.19-.28,2.14-1,3.04-1.4,1.76-3.24,2.81-5.29,3.65-3.31,1.36-5.62,3.59-5.77,7.44-.02.41-.07.82-.08,1.24-.01.96-.54,1.55-1.43,1.59-1.43.06-2.87-.05-4.3-.09-1.31-.04-2.36-.64-3.29-1.51Zm24.43-1.23c-5.04,4.94-11.06,6.62-17.94,5.23-1.07-.22-2.07-.74-3.11-1.11.05-.17.1-.33.15-.5.43,0,.86,0,1.28,0,.75.01,1.51.1,2.26.03,1.84-.17,2.45-.88,2.64-2.7.11-1.05.26-2.12.59-3.13.86-2.63,2.96-3.96,5.38-4.91,2.17-.85,4.04-2.08,5.28-4.12.13-.22.35-.38.52-.57.15-.03.31-.05.46-.08.17.72.2,1.52.54,2.14,1.11,2.01,2.36,3.95,3.51,5.94.23.39.49,1.04.32,1.32-.52.88-1.16,1.72-1.89,2.44Zm4.51-1.99c-4.5-3.24-6.57-8.11-7.32-13.54-.02-.17.06-.36.14-.81.33.48.5.75.69,1.02,1.05,1.45,1.98,3,3.17,4.32,2.42,2.69,5.47,4.35,9.05,5.05,1.99.39,3.99.81,5.93,1.39,3.01.89,6,1.87,9.2,1.53,1.18-.13,2.34-.5,3.5-.76.03.05.07.1.1.16-.19.18-.36.41-.58.54-1.77,1-3.5,2.07-5.32,2.95-6.54,3.15-12.85,2.28-18.56-1.83Z"/>
  </g>
  <text class="cls-3" transform="translate(23.49 133.1)"><tspan x="0" y="0">Love Peonies</tspan></text>
  <text class="cls-4" transform="translate(65.84 160.55)"><tspan x="0" y="0">BODY CARE</tspan></text>
</svg>